<svg xmlns="http://www.w3.org/2000/svg" width="256" height="256" viewBox="0 0 100 100"><path d="M72.88 1.51L72.88 1.51Q76.30 1.51 78.50 3.42Q80.70 5.32 80.40 10.30L80.40 10.30Q80.31 11.96 79.62 16.50Q78.94 21.04 77.96 27.20Q76.98 33.35 75.76 40.43Q74.54 47.51 73.47 54.25L73.47 54.25L75.52 54.25Q76.50 54.25 77.67 54.15Q78.84 54.05 80.11 53.86L80.11 53.86Q79.62 55.03 79.04 56.05Q78.45 57.08 77.86 57.86L77.86 57.86Q77.18 58.74 76.50 59.42L76.50 59.42Q75.62 60.50 74.45 61.33Q73.27 62.16 72.20 62.65L72.20 62.65Q71.52 67.43 71.08 71.19Q70.64 74.95 70.54 77.39L70.54 77.39Q70.34 81.10 70.73 84.33L70.73 84.33Q71.03 87.16 71.91 90.09Q72.79 93.02 74.74 94.78L74.74 94.78L63.41 98.49Q62.24 96.83 61.70 94.04Q61.16 91.26 60.97 88.53L60.97 88.53Q60.68 85.30 60.87 81.88L60.87 81.88Q61.07 78.47 61.95 72.95Q62.82 67.43 63.90 60.89L63.90 60.89Q61.95 60.30 59.65 59.91Q57.36 59.52 54.52 59.52L54.52 59.52Q51.98 59.52 49.20 59.72Q46.42 59.91 43.68 60.21L43.68 60.21Q42.51 64.50 41.34 69.29L41.34 69.29Q40.07 74.46 39.05 78.13Q38.02 81.79 37.09 84.23Q36.16 86.67 35.24 88.13Q34.31 89.60 33.23 90.28L33.23 90.28Q32.06 90.87 30.31 91.36L30.31 91.36Q28.64 91.85 26.11 92.33Q23.57 92.82 19.56 93.12L19.56 93.12Q21.03 91.36 22.10 89.89Q23.18 88.43 24.25 86.28Q25.32 84.13 26.64 80.76Q27.96 77.39 30.01 71.92L30.01 71.92Q30.89 69.68 31.82 66.99Q32.75 64.31 33.82 61.47L33.82 61.47Q30.31 61.96 27.86 62.35Q25.42 62.74 24.93 62.94L24.93 62.94Q24.15 63.04 23.66 62.94L23.66 62.94Q22.39 62.74 22.30 61.67L22.30 61.67Q22.39 60.30 23.22 59.81Q24.06 59.33 25.72 58.64L25.72 58.64Q26.50 58.25 29.28 57.23Q32.06 56.20 36.07 55.03L36.07 55.03Q37.53 50.93 38.95 46.88Q40.36 42.82 41.73 39.11Q43.10 35.40 44.37 32.13Q45.64 28.86 46.71 26.51L46.71 26.51Q48.37 22.90 50.96 18.55Q53.55 14.21 56.92 10.40Q60.29 6.59 64.34 4.05Q68.39 1.51 72.88 1.51ZM71.81 21.83L71.81 21.83Q72.88 17.43 73.27 14.60Q73.66 11.77 73.57 10.16Q73.47 8.54 72.93 7.91Q72.39 7.28 71.61 7.28L71.61 7.28Q70.34 7.28 68.49 8.25Q66.63 9.23 64.58 11.04Q62.53 12.84 60.53 15.53Q58.53 18.21 56.97 21.63L56.97 21.63Q54.72 26.71 51.89 34.08Q49.06 41.46 45.73 52.88L45.73 52.88Q47.69 52.59 49.59 52.39Q51.50 52.20 53.35 52.20L53.35 52.20Q56.67 52.20 59.70 52.44Q62.73 52.69 65.27 52.98L65.27 52.98Q66.14 48.29 67.07 43.75Q68.00 39.21 68.88 35.11Q69.76 31.01 70.49 27.59Q71.22 24.17 71.81 21.83Z" fill="#ffffff"></path></svg>